<?xml version="1.0" encoding="UTF-8" standalone="no"?>
<!DOCTYPE svg PUBLIC "-//W3C//DTD SVG 1.1//EN" "http://www.w3.org/Graphics/SVG/1.1/DTD/svg11.dtd">
<svg xmlns="http://www.w3.org/2000/svg" version="1.1" viewBox="0.00 0.00 724.00 1024.00">
<g stroke-width="2.00" fill="none" stroke-linecap="butt">
<path stroke="#8093bd" vector-effect="non-scaling-stroke" d="
  M 433.74 262.98
  C 429.46 269.37 433.05 276.23 435.92 282.80
  C 439.30 290.54 433.65 299.40 424.61 294.91
  C 419.92 292.57 415.06 288.82 410.11 287.39
  C 391.42 282.02 386.73 304.73 387.15 317.48"
/>
<path stroke="#80a9ff" vector-effect="non-scaling-stroke" d="
  M 387.15 317.48
  Q 356.97 307.38 327.58 318.73
  A 0.32 0.32 0.0 0 0 327.40 319.16
  L 344.77 357.71
  A 0.76 0.76 0.0 0 0 345.67 358.13
  Q 348.44 357.36 350.73 356.96
  C 389.61 350.18 415.92 390.97 426.53 421.96
  C 442.54 468.76 441.92 525.21 422.52 569.85
  C 412.70 592.44 394.61 617.79 368.45 622.11
  C 339.04 626.97 315.99 602.83 303.50 579.46
  C 286.69 547.99 280.67 510.56 282.78 474.98
  Q 284.84 440.07 296.42 412.04
  A 1.53 1.52 40.6 0 0 296.31 410.67
  L 270.99 369.25
  A 0.36 0.35 -44.4 0 0 270.39 369.25
  C 247.57 405.30 238.05 450.71 239.32 493.28
  Q 240.81 543.27 259.35 583.43
  C 269.94 606.37 284.94 627.75 304.68 642.22
  C 333.72 663.52 367.29 668.10 399.82 651.83
  Q 405.37 649.05 411.83 644.55"
/>
<path stroke="#8180d5" vector-effect="non-scaling-stroke" d="
  M 411.83 644.55
  Q 415.21 649.38 414.60 654.01
  C 413.12 665.10 411.69 671.87 413.60 679.90
  C 416.29 691.21 427.85 699.44 439.21 693.64
  C 443.72 691.34 446.89 687.14 446.32 682.24
  C 445.17 672.42 444.23 660.77 455.35 657.12
  C 462.16 654.88 469.21 657.25 475.64 653.86
  C 482.09 650.45 486.21 642.16 484.17 635.23
  C 482.03 627.96 474.62 627.74 467.98 626.55
  Q 465.29 626.07 463.66 623.94
  A 1.70 1.68 25.0 0 1 463.32 623.02
  Q 463.17 620.18 465.01 617.76
  C 469.32 612.10 480.08 600.53 475.09 592.76
  C 471.34 586.93 463.33 590.54 458.73 593.99
  Q 457.87 594.63 455.20 595.06"
/>
<path stroke="#80a9ff" vector-effect="non-scaling-stroke" d="
  M 455.20 595.06
  Q 454.51 594.75 454.78 594.25
  Q 470.10 564.87 475.88 531.64"
/>
<path stroke="#e9f0ff" vector-effect="non-scaling-stroke" d="
  M 475.88 531.64
  Q 478.61 533.72 481.63 538.11
  C 483.15 540.32 486.38 541.07 488.62 539.07
  C 495.58 532.88 493.56 512.70 493.01 503.56
  C 492.68 498.07 492.31 489.89 495.82 485.66
  A 2.90 2.90 0.0 0 1 499.16 484.82
  C 502.95 486.39 504.52 492.99 504.90 496.88
  C 505.97 507.66 504.81 519.85 517.12 525.29
  C 526.73 529.54 533.23 523.97 538.44 516.12
  Q 542.16 510.52 544.15 507.40
  A 7.41 7.12 -7.8 0 1 545.02 506.30
  C 557.21 493.54 572.22 480.46 567.84 460.49
  C 565.41 449.40 556.52 441.11 545.31 449.05
  Q 540.30 452.60 536.60 454.34
  C 527.31 458.71 519.36 450.29 515.64 442.85
  C 509.83 431.20 508.02 421.82 503.75 405.62
  C 500.32 392.62 492.72 380.57 476.97 386.73
  Q 470.62 389.22 466.60 395.59
  Q 465.94 396.63 465.34 398.63
  Q 464.83 400.28 464.12 401.73"
/>
<path stroke="#80a9ff" vector-effect="non-scaling-stroke" d="
  M 464.12 401.73
  Q 452.68 371.80 432.01 348.25
  Q 431.54 347.71 431.91 346.77"
/>
<path stroke="#8093bd" vector-effect="non-scaling-stroke" d="
  M 431.91 346.77
  Q 431.21 339.51 433.33 332.84
  C 437.93 318.35 448.47 317.34 460.32 324.68
  Q 467.24 328.97 472.46 332.26
  C 479.38 336.62 489.85 340.44 493.57 329.92
  Q 496.81 320.77 494.88 311.00
  C 493.74 305.20 488.93 298.19 485.25 292.50
  Q 483.33 289.53 483.58 286.25"
/>
<path stroke="#80a9ff" vector-effect="non-scaling-stroke" d="
  M 483.58 286.25
  Q 483.94 285.72 484.25 285.91
  Q 514.22 304.13 538.36 330.75"
/>
<path stroke="#b5cdff" vector-effect="non-scaling-stroke" d="
  M 538.36 330.75
  Q 536.44 331.65 536.63 334.31
  Q 536.98 339.53 537.46 342.25
  Q 537.84 344.44 537.42 345.90
  A 1.23 1.22 18.8 0 1 535.79 346.70
  Q 532.92 345.56 530.17 342.92
  C 527.10 339.97 522.03 334.46 517.81 333.30
  C 505.94 330.02 502.65 347.14 503.06 355.40
  C 503.67 367.69 512.27 370.57 522.21 373.75
  C 532.00 376.88 530.82 385.71 531.13 394.73
  C 531.45 404.21 537.79 412.91 547.70 413.36
  Q 555.19 413.71 563.45 410.65
  Q 573.27 407.00 583.39 403.73"
/>
<path stroke="#80a9ff" vector-effect="non-scaling-stroke" d="
  M 583.39 403.73
  Q 606.53 463.22 597.14 526.87
  Q 597.07 527.35 596.82 527.57
  Q 596.57 527.82 596.15 527.98"
/>
<path stroke="#8db2ff" vector-effect="non-scaling-stroke" d="
  M 596.15 527.98
  Q 582.20 537.46 565.19 534.55
  Q 556.44 533.05 547.65 531.45
  C 537.64 529.63 528.13 530.17 525.00 541.84
  C 522.16 552.42 525.84 560.78 529.75 570.74
  Q 533.94 581.43 526.07 589.42
  C 517.69 597.93 504.89 603.61 503.12 617.39
  C 502.23 624.30 504.44 632.82 510.51 636.28
  C 517.02 640.00 523.81 637.14 528.09 631.81
  Q 531.92 627.03 537.54 619.04
  C 540.98 614.15 547.90 605.69 553.74 605.35
  C 555.92 605.22 558.46 608.38 559.54 609.96
  Q 561.55 612.87 564.00 615.93"
/>
<path stroke="#80a9ff" vector-effect="non-scaling-stroke" d="
  M 564.00 615.93
  Q 539.67 654.60 503.72 680.73
  C 395.82 759.19 245.59 732.58 168.70 624.70
  Q 147.41 594.84 136.10 560.01
  C 120.65 512.47 120.45 461.22 135.61 414.09
  Q 147.32 377.69 169.77 347.03
  Q 192.10 316.54 223.52 294.18
  A 1.01 1.01 0.0 0 0 223.80 292.82
  L 199.89 253.69
  A 0.91 0.90 -33.1 0 0 198.60 253.42
  C 123.07 305.85 77.15 390.12 74.75 482.06
  Q 73.84 516.99 80.86 549.51
  C 112.37 695.64 249.20 792.50 397.05 774.44
  C 488.16 763.31 568.43 708.22 612.18 629.29
  C 663.15 537.31 660.36 424.80 603.72 335.78
  C 535.06 227.86 403.74 178.74 281.02 214.25
  A 0.68 0.67 -20.5 0 0 280.59 215.18
  L 299.95 258.15
  A 0.61 0.61 0.0 0 0 300.65 258.49
  Q 367.81 241.78 433.45 262.55
  Q 433.86 262.68 433.74 262.98"
/>
<path stroke="#0e5bff" vector-effect="non-scaling-stroke" d="
  M 564.00 615.93
  Q 568.42 608.91 572.23 601.73
  Q 589.57 569.10 596.17 532.72
  Q 596.64 530.12 596.15 527.98"
/>
<path stroke="#3677ff" vector-effect="non-scaling-stroke" d="
  M 583.39 403.73
  Q 570.09 370.04 547.79 341.95
  Q 543.20 336.17 538.36 330.75"
/>
<path stroke="#003dbd" vector-effect="non-scaling-stroke" d="
  M 483.58 286.25
  L 483.48 285.77
  A 1.17 1.13 -81.7 0 0 482.95 285.03
  Q 459.92 271.43 434.61 262.92
  A 0.96 0.94 -42.4 0 0 434.04 262.90
  L 433.74 262.98"
/>
<path stroke="#003dbd" vector-effect="non-scaling-stroke" d="
  M 431.91 346.77
  Q 430.73 347.09 430.10 346.41
  Q 411.99 326.76 387.15 317.48"
/>
<path stroke="#6a9aff" vector-effect="non-scaling-stroke" d="
  M 464.12 401.73
  Q 479.84 443.18 479.73 488.25
  Q 479.68 510.62 475.88 531.64"
/>
<path stroke="#0129d5" vector-effect="non-scaling-stroke" d="
  M 455.20 595.06
  Q 453.95 595.46 453.23 596.76
  Q 449.20 604.08 444.51 610.99
  Q 431.15 630.73 411.83 644.55"
/>
<path stroke="#e9f0ff" vector-effect="non-scaling-stroke" d="
  M 355.9731 467.0760
  A 27.23 24.30 -96.7 0 0 335.0160 496.9551
  A 27.23 24.30 -96.7 0 0 362.3269 521.1640
  A 27.23 24.30 -96.7 0 0 383.2840 491.2849
  A 27.23 24.30 -96.7 0 0 355.9731 467.0760"
/>
</g>
<path fill="#ffffff" d="
  M 724.00 0.00
  L 724.00 1024.00
  L 0.00 1024.00
  L 0.00 0.00
  L 724.00 0.00
  Z
  M 433.74 262.98
  C 429.46 269.37 433.05 276.23 435.92 282.80
  C 439.30 290.54 433.65 299.40 424.61 294.91
  C 419.92 292.57 415.06 288.82 410.11 287.39
  C 391.42 282.02 386.73 304.73 387.15 317.48
  Q 356.97 307.38 327.58 318.73
  A 0.32 0.32 0.0 0 0 327.40 319.16
  L 344.77 357.71
  A 0.76 0.76 0.0 0 0 345.67 358.13
  Q 348.44 357.36 350.73 356.96
  C 389.61 350.18 415.92 390.97 426.53 421.96
  C 442.54 468.76 441.92 525.21 422.52 569.85
  C 412.70 592.44 394.61 617.79 368.45 622.11
  C 339.04 626.97 315.99 602.83 303.50 579.46
  C 286.69 547.99 280.67 510.56 282.78 474.98
  Q 284.84 440.07 296.42 412.04
  A 1.53 1.52 40.6 0 0 296.31 410.67
  L 270.99 369.25
  A 0.36 0.35 -44.4 0 0 270.39 369.25
  C 247.57 405.30 238.05 450.71 239.32 493.28
  Q 240.81 543.27 259.35 583.43
  C 269.94 606.37 284.94 627.75 304.68 642.22
  C 333.72 663.52 367.29 668.10 399.82 651.83
  Q 405.37 649.05 411.83 644.55
  Q 415.21 649.38 414.60 654.01
  C 413.12 665.10 411.69 671.87 413.60 679.90
  C 416.29 691.21 427.85 699.44 439.21 693.64
  C 443.72 691.34 446.89 687.14 446.32 682.24
  C 445.17 672.42 444.23 660.77 455.35 657.12
  C 462.16 654.88 469.21 657.25 475.64 653.86
  C 482.09 650.45 486.21 642.16 484.17 635.23
  C 482.03 627.96 474.62 627.74 467.98 626.55
  Q 465.29 626.07 463.66 623.94
  A 1.70 1.68 25.0 0 1 463.32 623.02
  Q 463.17 620.18 465.01 617.76
  C 469.32 612.10 480.08 600.53 475.09 592.76
  C 471.34 586.93 463.33 590.54 458.73 593.99
  Q 457.87 594.63 455.20 595.06
  Q 454.51 594.75 454.78 594.25
  Q 470.10 564.87 475.88 531.64
  Q 478.61 533.72 481.63 538.11
  C 483.15 540.32 486.38 541.07 488.62 539.07
  C 495.58 532.88 493.56 512.70 493.01 503.56
  C 492.68 498.07 492.31 489.89 495.82 485.66
  A 2.90 2.90 0.0 0 1 499.16 484.82
  C 502.95 486.39 504.52 492.99 504.90 496.88
  C 505.97 507.66 504.81 519.85 517.12 525.29
  C 526.73 529.54 533.23 523.97 538.44 516.12
  Q 542.16 510.52 544.15 507.40
  A 7.41 7.12 -7.8 0 1 545.02 506.30
  C 557.21 493.54 572.22 480.46 567.84 460.49
  C 565.41 449.40 556.52 441.11 545.31 449.05
  Q 540.30 452.60 536.60 454.34
  C 527.31 458.71 519.36 450.29 515.64 442.85
  C 509.83 431.20 508.02 421.82 503.75 405.62
  C 500.32 392.62 492.72 380.57 476.97 386.73
  Q 470.62 389.22 466.60 395.59
  Q 465.94 396.63 465.34 398.63
  Q 464.83 400.28 464.12 401.73
  Q 452.68 371.80 432.01 348.25
  Q 431.54 347.71 431.91 346.77
  Q 431.21 339.51 433.33 332.84
  C 437.93 318.35 448.47 317.34 460.32 324.68
  Q 467.24 328.97 472.46 332.26
  C 479.38 336.62 489.85 340.44 493.57 329.92
  Q 496.81 320.77 494.88 311.00
  C 493.74 305.20 488.93 298.19 485.25 292.50
  Q 483.33 289.53 483.58 286.25
  Q 483.94 285.72 484.25 285.91
  Q 514.22 304.13 538.36 330.75
  Q 536.44 331.65 536.63 334.31
  Q 536.98 339.53 537.46 342.25
  Q 537.84 344.44 537.42 345.90
  A 1.23 1.22 18.8 0 1 535.79 346.70
  Q 532.92 345.56 530.17 342.92
  C 527.10 339.97 522.03 334.46 517.81 333.30
  C 505.94 330.02 502.65 347.14 503.06 355.40
  C 503.67 367.69 512.27 370.57 522.21 373.75
  C 532.00 376.88 530.82 385.71 531.13 394.73
  C 531.45 404.21 537.79 412.91 547.70 413.36
  Q 555.19 413.71 563.45 410.65
  Q 573.27 407.00 583.39 403.73
  Q 606.53 463.22 597.14 526.87
  Q 597.07 527.35 596.82 527.57
  Q 596.57 527.82 596.15 527.98
  Q 582.20 537.46 565.19 534.55
  Q 556.44 533.05 547.65 531.45
  C 537.64 529.63 528.13 530.17 525.00 541.84
  C 522.16 552.42 525.84 560.78 529.75 570.74
  Q 533.94 581.43 526.07 589.42
  C 517.69 597.93 504.89 603.61 503.12 617.39
  C 502.23 624.30 504.44 632.82 510.51 636.28
  C 517.02 640.00 523.81 637.14 528.09 631.81
  Q 531.92 627.03 537.54 619.04
  C 540.98 614.15 547.90 605.69 553.74 605.35
  C 555.92 605.22 558.46 608.38 559.54 609.96
  Q 561.55 612.87 564.00 615.93
  Q 539.67 654.60 503.72 680.73
  C 395.82 759.19 245.59 732.58 168.70 624.70
  Q 147.41 594.84 136.10 560.01
  C 120.65 512.47 120.45 461.22 135.61 414.09
  Q 147.32 377.69 169.77 347.03
  Q 192.10 316.54 223.52 294.18
  A 1.01 1.01 0.0 0 0 223.80 292.82
  L 199.89 253.69
  A 0.91 0.90 -33.1 0 0 198.60 253.42
  C 123.07 305.85 77.15 390.12 74.75 482.06
  Q 73.84 516.99 80.86 549.51
  C 112.37 695.64 249.20 792.50 397.05 774.44
  C 488.16 763.31 568.43 708.22 612.18 629.29
  C 663.15 537.31 660.36 424.80 603.72 335.78
  C 535.06 227.86 403.74 178.74 281.02 214.25
  A 0.68 0.67 -20.5 0 0 280.59 215.18
  L 299.95 258.15
  A 0.61 0.61 0.0 0 0 300.65 258.49
  Q 367.81 241.78 433.45 262.55
  Q 433.86 262.68 433.74 262.98
  Z
  M 355.9731 467.0760
  A 27.23 24.30 -96.7 0 0 335.0160 496.9551
  A 27.23 24.30 -96.7 0 0 362.3269 521.1640
  A 27.23 24.30 -96.7 0 0 383.2840 491.2849
  A 27.23 24.30 -96.7 0 0 355.9731 467.0760
  Z"
/>
<path fill="#0052ff" d="
  M 564.00 615.93
  Q 568.42 608.91 572.23 601.73
  Q 589.57 569.10 596.17 532.72
  Q 596.64 530.12 596.15 527.98
  Q 596.57 527.82 596.82 527.57
  Q 597.07 527.35 597.14 526.87
  Q 606.53 463.22 583.39 403.73
  Q 570.09 370.04 547.79 341.95
  Q 543.20 336.17 538.36 330.75
  Q 514.22 304.13 484.25 285.91
  Q 483.94 285.72 483.58 286.25
  L 483.48 285.77
  A 1.17 1.13 -81.7 0 0 482.95 285.03
  Q 459.92 271.43 434.61 262.92
  A 0.96 0.94 -42.4 0 0 434.04 262.90
  L 433.74 262.98
  Q 433.86 262.68 433.45 262.55
  Q 367.81 241.78 300.65 258.49
  A 0.61 0.61 0.0 0 1 299.95 258.15
  L 280.59 215.18
  A 0.68 0.67 -20.5 0 1 281.02 214.25
  C 403.74 178.74 535.06 227.86 603.72 335.78
  C 660.36 424.80 663.15 537.31 612.18 629.29
  C 568.43 708.22 488.16 763.31 397.05 774.44
  C 249.20 792.50 112.37 695.64 80.86 549.51
  Q 73.84 516.99 74.75 482.06
  C 77.15 390.12 123.07 305.85 198.60 253.42
  A 0.91 0.90 -33.1 0 1 199.89 253.69
  L 223.80 292.82
  A 1.01 1.01 0.0 0 1 223.52 294.18
  Q 192.10 316.54 169.77 347.03
  Q 147.32 377.69 135.61 414.09
  C 120.45 461.22 120.65 512.47 136.10 560.01
  Q 147.41 594.84 168.70 624.70
  C 245.59 732.58 395.82 759.19 503.72 680.73
  Q 539.67 654.60 564.00 615.93
  Z"
/>
<path fill="#00277a" d="
  M 483.58 286.25
  Q 483.33 289.53 485.25 292.50
  C 488.93 298.19 493.74 305.20 494.88 311.00
  Q 496.81 320.77 493.57 329.92
  C 489.85 340.44 479.38 336.62 472.46 332.26
  Q 467.24 328.97 460.32 324.68
  C 448.47 317.34 437.93 318.35 433.33 332.84
  Q 431.21 339.51 431.91 346.77
  Q 430.73 347.09 430.10 346.41
  Q 411.99 326.76 387.15 317.48
  C 386.73 304.73 391.42 282.02 410.11 287.39
  C 415.06 288.82 419.92 292.57 424.61 294.91
  C 433.65 299.40 439.30 290.54 435.92 282.80
  C 433.05 276.23 429.46 269.37 433.74 262.98
  L 434.04 262.90
  A 0.96 0.94 -42.4 0 1 434.61 262.92
  Q 459.92 271.43 482.95 285.03
  A 1.17 1.13 -81.7 0 1 483.48 285.77
  L 483.58 286.25
  Z"
/>
<path fill="#0052ff" d="
  M 387.15 317.48
  Q 411.99 326.76 430.10 346.41
  Q 430.73 347.09 431.91 346.77
  Q 431.54 347.71 432.01 348.25
  Q 452.68 371.80 464.12 401.73
  Q 479.84 443.18 479.73 488.25
  Q 479.68 510.62 475.88 531.64
  Q 470.10 564.87 454.78 594.25
  Q 454.51 594.75 455.20 595.06
  Q 453.95 595.46 453.23 596.76
  Q 449.20 604.08 444.51 610.99
  Q 431.15 630.73 411.83 644.55
  Q 405.37 649.05 399.82 651.83
  C 367.29 668.10 333.72 663.52 304.68 642.22
  C 284.94 627.75 269.94 606.37 259.35 583.43
  Q 240.81 543.27 239.32 493.28
  C 238.05 450.71 247.57 405.30 270.39 369.25
  A 0.36 0.35 -44.4 0 1 270.99 369.25
  L 296.31 410.67
  A 1.53 1.52 40.6 0 1 296.42 412.04
  Q 284.84 440.07 282.78 474.98
  C 280.67 510.56 286.69 547.99 303.50 579.46
  C 315.99 602.83 339.04 626.97 368.45 622.11
  C 394.61 617.79 412.70 592.44 422.52 569.85
  C 441.92 525.21 442.54 468.76 426.53 421.96
  C 415.92 390.97 389.61 350.18 350.73 356.96
  Q 348.44 357.36 345.67 358.13
  A 0.76 0.76 0.0 0 1 344.77 357.71
  L 327.40 319.16
  A 0.32 0.32 0.0 0 1 327.58 318.73
  Q 356.97 307.38 387.15 317.48
  Z"
/>
<path fill="#6b9bff" d="
  M 583.39 403.73
  Q 573.27 407.00 563.45 410.65
  Q 555.19 413.71 547.70 413.36
  C 537.79 412.91 531.45 404.21 531.13 394.73
  C 530.82 385.71 532.00 376.88 522.21 373.75
  C 512.27 370.57 503.67 367.69 503.06 355.40
  C 502.65 347.14 505.94 330.02 517.81 333.30
  C 522.03 334.46 527.10 339.97 530.17 342.92
  Q 532.92 345.56 535.79 346.70
  A 1.23 1.22 18.8 0 0 537.42 345.90
  Q 537.84 344.44 537.46 342.25
  Q 536.98 339.53 536.63 334.31
  Q 536.44 331.65 538.36 330.75
  Q 543.20 336.17 547.79 341.95
  Q 570.09 370.04 583.39 403.73
  Z"
/>
<path fill="#d3e1ff" d="
  M 475.88 531.64
  Q 479.68 510.62 479.73 488.25
  Q 479.84 443.18 464.12 401.73
  Q 464.83 400.28 465.34 398.63
  Q 465.94 396.63 466.60 395.59
  Q 470.62 389.22 476.97 386.73
  C 492.72 380.57 500.32 392.62 503.75 405.62
  C 508.02 421.82 509.83 431.20 515.64 442.85
  C 519.36 450.29 527.31 458.71 536.60 454.34
  Q 540.30 452.60 545.31 449.05
  C 556.52 441.11 565.41 449.40 567.84 460.49
  C 572.22 480.46 557.21 493.54 545.02 506.30
  A 7.41 7.12 -7.8 0 0 544.15 507.40
  Q 542.16 510.52 538.44 516.12
  C 533.23 523.97 526.73 529.54 517.12 525.29
  C 504.81 519.85 505.97 507.66 504.90 496.88
  C 504.52 492.99 502.95 486.39 499.16 484.82
  A 2.90 2.90 0.0 0 0 495.82 485.66
  C 492.31 489.89 492.68 498.07 493.01 503.56
  C 493.56 512.70 495.58 532.88 488.62 539.07
  C 486.38 541.07 483.15 540.32 481.63 538.11
  Q 478.61 533.72 475.88 531.64
  Z"
/>
<ellipse fill="#d3e1ff" cx="0.00" cy="0.00" transform="translate(359.15,494.12) rotate(-96.7)" rx="27.23" ry="24.30"/>
<path fill="#1b64ff" d="
  M 596.15 527.98
  Q 596.64 530.12 596.17 532.72
  Q 589.57 569.10 572.23 601.73
  Q 568.42 608.91 564.00 615.93
  Q 561.55 612.87 559.54 609.96
  C 558.46 608.38 555.92 605.22 553.74 605.35
  C 547.90 605.69 540.98 614.15 537.54 619.04
  Q 531.92 627.03 528.09 631.81
  C 523.81 637.14 517.02 640.00 510.51 636.28
  C 504.44 632.82 502.23 624.30 503.12 617.39
  C 504.89 603.61 517.69 597.93 526.07 589.42
  Q 533.94 581.43 529.75 570.74
  C 525.84 560.78 522.16 552.42 525.00 541.84
  C 528.13 530.17 537.64 529.63 547.65 531.45
  Q 556.44 533.05 565.19 534.55
  Q 582.20 537.46 596.15 527.98
  Z"
/>
<path fill="#0200aa" d="
  M 411.83 644.55
  Q 431.15 630.73 444.51 610.99
  Q 449.20 604.08 453.23 596.76
  Q 453.95 595.46 455.20 595.06
  Q 457.87 594.63 458.73 593.99
  C 463.33 590.54 471.34 586.93 475.09 592.76
  C 480.08 600.53 469.32 612.10 465.01 617.76
  Q 463.17 620.18 463.32 623.02
  A 1.70 1.68 25.0 0 0 463.66 623.94
  Q 465.29 626.07 467.98 626.55
  C 474.62 627.74 482.03 627.96 484.17 635.23
  C 486.21 642.16 482.09 650.45 475.64 653.86
  C 469.21 657.25 462.16 654.88 455.35 657.12
  C 444.23 660.77 445.17 672.42 446.32 682.24
  C 446.89 687.14 443.72 691.34 439.21 693.64
  C 427.85 699.44 416.29 691.21 413.60 679.90
  C 411.69 671.87 413.12 665.10 414.60 654.01
  Q 415.21 649.38 411.83 644.55
  Z"
/>
</svg>
