<?xml version="1.0" encoding="UTF-8"?>
<!-- Generator: visioncortex VTracer 0.6.4 -->
<svg version="1.1" xmlns="http://www.w3.org/2000/svg" width="2560" height="1440">
<path d="M0 0 C844.8 0 1689.6 0 2560 0 C2560 475.2 2560 950.4 2560 1440 C1715.2 1440 870.4 1440 0 1440 C0 964.8 0 489.6 0 0 Z " fill="#FEFEFE" transform="translate(0,0)"/>
<path d="M0 0 C12.44 9.45 18.35 22.38 22.18 37.23 C22.45 38.28 22.45 38.28 22.72 39.35 C24.45 46.85 24.52 54.25 24.49 61.92 C24.49 62.92 24.49 62.92 24.48 63.94 C24.44 73.74 23.9 82.77 21.18 92.23 C20.88 93.48 20.59 94.73 20.29 96.02 C14.05 121.28 -0.81 143.97 -15.93 164.78 C-30.87 185.43 -45.31 207.67 -52.82 232.23 C-53.03 232.86 -53.24 233.49 -53.45 234.14 C-56.8 244.71 -57.21 255.3 -57.26 266.3 C-57.27 267.61 -57.28 268.92 -57.29 270.28 C-57.15 286.25 -53.47 301.26 -49.55 316.67 C-40.17 353.81 -32.27 392.7 -51.45 428.25 C-58.48 439.92 -67.87 450.85 -81.38 454.76 C-89.14 456.27 -95.99 456.23 -102.74 451.82 C-127.47 432.99 -134.48 390.9 -138.84 362.01 C-140.14 353.68 -141.83 345.57 -148.82 340.23 C-153.43 337.27 -157.45 336.58 -162.82 337.23 C-166.01 338.23 -168.99 339.57 -172.01 340.98 C-177.89 343.71 -182.64 345.41 -189.14 346.11 C-192.37 346.89 -192.37 346.89 -194.82 349.23 C-197.32 354.71 -198.03 360.84 -199.1 366.72 C-201.04 377.36 -204.32 387.64 -207.45 397.98 C-208.02 399.88 -208.59 401.78 -209.16 403.67 C-209.97 406.39 -210.79 409.11 -211.6 411.83 C-214.88 422.73 -218.07 433.6 -220.45 444.73 C-220.65 445.65 -220.86 446.57 -221.07 447.51 C-234.43 509.28 -209.68 559.92 -180.57 612.67 C-154.85 659.44 -123.75 720.13 -138.86 774.99 C-143.7 791.12 -151.88 803.11 -166.82 811.23 C-183.05 819.24 -201.92 818.83 -218.99 813.57 C-247.31 803.39 -269.09 781.7 -282.07 754.86 C-293.85 727.87 -293.75 699.87 -288.82 671.23 C-288.32 668.23 -287.82 665.23 -287.32 662.23 C-286.52 657.41 -285.72 652.58 -284.89 647.76 C-283.01 636.68 -281.64 626.05 -281.64 614.8 C-281.62 613.82 -281.61 612.85 -281.6 611.85 C-281.58 603.42 -281.72 592.78 -287.82 586.23 C-295.67 580.28 -303.78 580.3 -313.22 581.55 C-316.79 582.06 -320.36 582.61 -323.93 583.15 C-345.34 586.33 -345.34 586.33 -354.82 581.23 C-359.33 577.53 -362.37 573.7 -363.14 567.79 C-363.48 559.9 -361.33 553.24 -357.82 546.23 C-357.62 543.78 -357.5 541.38 -357.45 538.92 C-357.38 536.95 -357.38 536.95 -357.3 534.93 C-357.96 530.26 -359.14 529.11 -362.82 526.23 C-365.3 524.59 -367.85 523.12 -370.45 521.67 C-371.97 520.79 -373.5 519.91 -375.02 519.03 C-375.81 518.57 -376.6 518.12 -377.41 517.65 C-409.38 498.94 -446.2 472.72 -456.46 434.9 C-459.65 418.8 -458.63 403.65 -449.51 389.57 C-439.21 375.29 -425.53 366.87 -408.2 363.73 C-397.96 362.36 -387.17 362.61 -376.92 363.73 C-359.34 365.63 -339.84 366.65 -325.13 355.34 C-317.9 348.73 -312.54 340.76 -307.82 332.23 C-309.08 331.85 -309.08 331.85 -310.37 331.45 C-327.86 325.3 -345.02 314.49 -358.82 302.23 C-359.67 301.52 -360.52 300.8 -361.39 300.06 C-367.65 294.67 -372.78 288.76 -377.82 282.23 C-378.94 280.86 -378.94 280.86 -380.07 279.46 C-405.3 247.5 -412.49 204.31 -408.32 164.61 C-407.73 160.09 -406.87 155.66 -405.82 151.23 C-405.66 150.52 -405.49 149.81 -405.32 149.08 C-400.2 128.01 -390.01 105.95 -371.57 93.55 C-359.19 86.11 -347.45 84.37 -333.27 86.86 C-316.93 91.33 -303.25 102.32 -291.01 113.61 C-276.56 126.85 -260.03 138.84 -241.82 146.23 C-241.02 146.57 -240.22 146.91 -239.39 147.27 C-227.26 151.69 -213.28 150.23 -201.64 145.11 C-191.88 140.4 -183.54 133.79 -175.82 126.23 C-175.32 125.74 -174.81 125.25 -174.28 124.75 C-167.87 118.57 -161.8 112.29 -156.26 105.3 C-153.79 102.19 -151.26 99.13 -148.72 96.07 C-143.94 90.31 -139.22 84.52 -134.7 78.55 C-127.25 68.76 -119.1 59.56 -110.83 50.46 C-109 48.43 -107.22 46.37 -105.45 44.3 C-97.64 35.37 -89.11 27.58 -79.82 20.23 C-79.01 19.56 -78.2 18.88 -77.37 18.18 C-57.2 1.43 -25.35 -15.85 0 0 Z " fill="#0052FE" transform="translate(578.82421875,180.765625)"/>
<path d="M0 0 C74.91 0 149.82 0 227 0 C227 10.23 227 20.46 227 31 C229.94 41.28 234.54 45.72 243.82 50.92 C250.33 54.37 257.16 57.09 264.01 59.77 C279.83 65.97 291.66 72.56 299.13 88.4 C303.48 101.41 298.07 116.42 292.31 128.19 C288.62 135.38 284.19 141.79 279 148 C278.18 149 277.36 149.99 276.51 151.02 C271.74 156.62 266.6 161.38 260.69 165.75 C260.13 166.16 259.58 166.57 259.01 167 C248.08 174.75 236.26 180.45 223.94 185.56 C196.91 196.71 196.91 196.71 179 219 C178.59 219.85 178.18 220.7 177.75 221.58 C171.93 235.34 175.04 250.19 180.44 263.56 C186.21 275.78 194.22 286.77 202.77 297.18 C210.41 306.83 218.4 317 224 328 C224.48 328.92 224.96 329.84 225.46 330.79 C230.71 342.25 231.21 356.17 226.94 368.06 C226.02 370.07 225.04 372.05 224 374 C223.52 374.93 223.03 375.86 222.53 376.81 C211.19 396.38 190.16 409.18 168.79 415.16 C164.88 416.19 160.95 417.11 157 418 C156 418.25 155 418.5 153.97 418.75 C118.65 426.23 83 413.4 53.66 394.48 C48.86 391.29 44.37 387.76 40 384 C39.75 384.56 39.51 385.13 39.25 385.71 C29.83 402.98 10.2 414.47 -8 420 C-8.66 420.2 -9.31 420.4 -9.99 420.61 C-20.18 422.59 -29.08 421 -37.92 415.89 C-51.03 406.5 -53.11 385.91 -55.8 371.31 C-60.6 344.66 -60.6 344.66 -77.56 324.44 C-87.18 318.77 -96.97 317.32 -107.87 319.93 C-112 321.14 -116.06 322.53 -120.12 323.94 C-129.07 327 -137.45 329.75 -147 330 C-148.6 330.07 -148.6 330.07 -150.23 330.14 C-166.49 330.76 -181.48 330.11 -197 325 C-197.7 324.77 -198.41 324.54 -199.13 324.3 C-221.58 316.69 -242.91 300.52 -253.92 279.21 C-262.78 260.65 -264.77 239.57 -258.32 219.92 C-252.21 203.19 -241.74 189.51 -225.71 181.25 C-221.89 179.49 -218.06 178.11 -214 177 C-213.2 176.77 -212.39 176.55 -211.56 176.31 C-191.67 173.89 -173.41 183.8 -156.67 193.36 C-135.69 205.19 -114.86 206.94 -91.64 200.63 C-89.76 200.09 -87.88 199.55 -86 199 C-84.92 198.68 -83.83 198.37 -82.71 198.04 C-80.37 197.36 -78.02 196.67 -75.68 195.99 C-52.9 189.36 -29.83 183.69 -6 188 C-5.96 187.1 -5.91 186.2 -5.87 185.28 C-5.33 175.77 -4.17 166.45 -2.56 157.06 C-2.37 155.94 -2.37 155.94 -2.18 154.8 C0.54 138.63 3.92 122.6 7.31 106.56 C9.81 94.73 12.26 82.89 14.5 71 C14.73 69.79 14.96 68.59 15.2 67.34 C21.1 39.17 21.1 39.17 14.9 12.07 C12.19 8.56 8.72 6.32 5 4 C3.35 2.68 1.7 1.36 0 0 Z " fill="#0052FF" transform="translate(2159,0)"/>
<path d="M0 0 C1.32 0.67 1.32 0.67 2.66 1.35 C34.32 18.89 46.43 57.31 58.1 89.14 C58.47 90.13 58.83 91.13 59.21 92.15 C61.04 97.15 62.86 102.15 64.67 107.15 C76.33 139.24 90.14 172.39 122.88 187.89 C132.94 192.32 143.15 194.5 154 196 C155.25 196.17 156.49 196.35 157.78 196.53 C161.7 197.01 165.56 197.13 169.52 197.13 C170.56 197.13 170.56 197.13 171.63 197.14 C173.88 197.14 176.13 197.13 178.38 197.12 C179.55 197.12 179.55 197.12 180.74 197.12 C190.4 197.11 200.03 196.95 209.69 196.5 C237.56 195.26 265.32 195.16 293 199 C293.79 199.11 294.58 199.21 295.4 199.32 C326.93 203.84 356.73 220.95 376.59 245.68 C396.79 272.77 404.8 307.46 400.23 340.84 C395.04 373.52 379.23 406.54 352.4 426.79 C339.37 436.14 325.2 441.31 309 440 C298.63 437.65 290.02 431.76 284 423 C271.49 402.01 271.14 377.44 270.56 353.69 C271.42 316.6 271.42 316.6 256.44 284.5 C251.67 281.57 248.93 280.53 243.34 281.36 C239.09 282.53 236.3 285.18 233 288 C217.5 300.7 201.56 311.36 184 321 C182.89 321.62 182.89 321.62 181.75 322.25 C172.09 327.57 162.82 330.89 152 333 C150.32 333.34 150.32 333.34 148.6 333.68 C136.07 335.9 123.64 335.11 111.06 333.69 C109.84 333.55 108.62 333.42 107.36 333.28 C99.84 332.42 92.48 331.33 85.09 329.67 C82.08 329.02 79.11 328.59 76.06 328.19 C35.46 321.41 -3.32 292.51 -31.81 264.38 C-32.46 263.74 -33.11 263.1 -33.78 262.44 C-37.16 259.04 -40.07 255.68 -42.75 251.69 C-44.56 249.2 -45.38 248.17 -48.36 247.33 C-50.21 247.1 -52.06 246.9 -53.91 246.7 C-57.8 245.82 -60.69 243.96 -63.94 241.75 C-64.53 241.35 -65.12 240.95 -65.74 240.53 C-66.92 239.73 -68.11 238.93 -69.3 238.13 C-77.32 232.82 -84.6 230.31 -94.16 229.32 C-97 229 -97 229 -99 228 C-117.12 226.17 -132.81 228.73 -149.79 234.85 C-155.16 236.77 -160.58 238.51 -166 240.25 C-167.03 240.58 -168.07 240.92 -169.13 241.26 C-184.7 246.23 -199.89 249.17 -216.25 249.25 C-217.31 249.27 -218.36 249.29 -219.45 249.31 C-236.93 249.4 -250.35 242.84 -263 231 C-275.34 218.18 -281.16 202.39 -281.38 184.81 C-281.39 183.98 -281.4 183.15 -281.42 182.29 C-281.33 170.87 -276.53 160.82 -269 152.31 C-260.4 144.44 -250 141.56 -238.94 139 C-222.21 135.1 -211.66 128.59 -201 114.94 C-193.41 105.29 -185.34 98.95 -173 97 C-163.8 96.45 -155.74 96.99 -147 100 C-145.56 100.49 -144.11 100.98 -142.67 101.46 C-141.9 101.73 -141.12 101.99 -140.33 102.26 C-126.49 106.92 -113.44 110.58 -99 106 C-98.96 105.39 -98.91 104.77 -98.86 104.14 C-97.92 91.59 -96.82 79.28 -94 67 C-93.6 65.27 -93.6 65.27 -93.2 63.51 C-88.05 43.49 -77.41 26.62 -63 12 C-62.33 11.32 -61.66 10.64 -60.98 9.94 C-44.56 -5.57 -20.24 -10.48 0 0 Z " fill="#00277A" transform="translate(1045,788)"/>
<path d="M0 0 C1.42 1.2 2.81 2.44 4.19 3.69 C5.47 4.8 5.47 4.8 6.79 5.94 C18.73 16.95 26.72 31.15 31.19 46.69 C31.72 48.45 31.72 48.45 32.26 50.25 C36.79 66.12 38.78 81.83 38.69 98.31 C38.69 99.58 38.69 99.58 38.69 100.88 C38.62 120.7 36.16 140.11 33.19 159.69 C32.98 161.05 32.78 162.41 32.57 163.76 C31.18 172.98 31.18 172.98 30.44 177.43 C26.34 202.47 25.04 228.87 40.19 250.55 C49.15 261.93 59.84 271.75 71.19 280.69 C73.26 282.37 75.32 284.06 77.38 285.75 C78.76 286.88 78.76 286.88 80.17 288.04 C80.83 288.58 81.5 289.13 82.19 289.69 C81.96 290.72 81.73 291.75 81.49 292.82 C80.59 296.84 79.7 300.86 78.81 304.88 C78.16 307.8 77.5 310.73 76.84 313.65 C76.4 315.66 75.95 317.68 75.5 319.69 C75.29 320.63 75.07 321.57 74.85 322.54 C70.95 340.21 69.83 360.25 75.19 377.69 C75.45 378.6 75.72 379.5 76 380.44 C79.48 390.6 86.21 396.72 95.57 401.59 C108.64 407.06 126.89 404.11 140.5 402.19 C148.07 401.12 155.47 400.39 163.12 400.38 C163.91 400.37 164.7 400.36 165.51 400.36 C167.75 400.39 169.95 400.5 172.19 400.69 C172.99 400.75 173.79 400.81 174.61 400.87 C177.92 401.33 180.33 401.67 182.55 404.29 C183.65 406.39 184.45 408.44 185.19 410.69 C185.43 411.4 185.67 412.1 185.92 412.83 C186.61 415.02 187.23 417.22 187.81 419.44 C188.02 420.23 188.24 421.02 188.45 421.84 C194.91 446.5 193.31 469.63 180.28 491.94 C177.37 496.61 173.96 500.7 170.19 504.69 C169.19 505.76 169.19 505.76 168.18 506.86 C156.69 518.15 140.01 524.24 124.1 524.11 C117.81 523.87 112.78 522.47 107.19 519.69 C105.71 518.96 105.71 518.96 104.2 518.21 C84.25 507.49 73.71 487.13 63.48 467.84 C55.69 453.17 47.27 438.9 37.19 425.69 C36.47 424.72 35.76 423.75 35.03 422.75 C27.47 412.88 17.96 404.97 6.19 400.69 C5.53 400.36 4.87 400.03 4.19 399.69 C-2.73 399 -9.36 398.56 -15.03 403.05 C-21.58 409.08 -23.41 417.38 -25.62 425.69 C-30.57 443.2 -36.89 459.26 -51.81 470.69 C-68.74 479.79 -89.28 482.69 -108.25 481.8 C-110.95 481.68 -113.65 481.61 -116.36 481.55 C-172.19 480.02 -230.66 461.14 -270.26 420.19 C-285.89 403.52 -297.29 380.87 -296.81 357.69 C-295.87 357.66 -294.92 357.64 -293.95 357.61 C-271.32 356.75 -250.17 350.84 -234.12 334 C-228.17 326.91 -222.98 316.91 -222.18 307.61 C-222.05 306.21 -222.05 306.21 -221.93 304.78 C-221.85 303.82 -221.77 302.86 -221.69 301.88 C-221.6 300.9 -221.51 299.92 -221.43 298.91 C-221.21 296.5 -221.01 294.1 -220.81 291.69 C-218.07 292.21 -215.33 292.74 -212.58 293.26 C-210.21 293.72 -207.84 294.17 -205.47 294.62 C-200.08 295.65 -194.69 296.69 -189.34 297.91 C-166.89 302.97 -146.63 302.21 -126.81 289.69 C-117.14 282.41 -112.5 271.16 -109.81 259.69 C-109.27 255.11 -109.21 250.61 -109.25 246 C-109.23 244.89 -109.2 243.79 -109.18 242.65 C-109.22 219.8 -116.61 197.16 -122.75 175.38 C-135.86 128.87 -149.7 78.57 -126.56 33 C-114.63 11.78 -95.58 -5.43 -71.83 -12.17 C-46.73 -18.84 -21.15 -15.6 0 0 Z " fill="#0052FF" transform="translate(1702.8125,386.3125)"/>
<path d="M0 0 C3.93 3.06 7.5 6.46 11 10 C11.83 10.83 12.66 11.65 13.52 12.5 C14.34 13.33 15.16 14.15 16 15 C16.74 15.75 17.49 16.49 18.25 17.26 C26.01 25.42 32.01 34.51 38 44 C38.59 44.94 38.59 44.94 39.2 45.89 C44.22 53.88 48.72 62.13 53.19 70.44 C70.38 102.42 88.99 133.63 113 161 C113.57 161.67 114.15 162.35 114.74 163.04 C123.55 173.32 132.98 183.06 142.59 192.57 C145.99 195.95 149.24 199.4 152.34 203.07 C153.55 204.47 154.79 205.84 156.07 207.18 C184.6 237.45 194.19 276.47 194.19 317.01 C194.19 319.6 194.21 322.19 194.22 324.79 C194.42 381.73 177.24 443.36 137 485 C134.46 487.5 131.79 489.77 129 492 C128.5 492.4 128 492.81 127.49 493.23 C106.62 510 81.94 519.19 55 517 C41.9 514.59 30.16 507.87 22.5 496.84 C17.38 488.21 15.43 479.34 15.5 469.38 C15.51 467.94 15.51 467.94 15.52 466.47 C16.25 437.73 37.18 411.95 52.63 389.12 C58.49 380.46 64.26 371.78 69.57 362.77 C69.96 362.11 70.36 361.44 70.76 360.75 C79.46 345.74 88.75 327.58 84.46 309.74 C79.95 300.31 66.87 297.23 57.84 293.98 C37.62 286.64 37.62 286.64 32.86 276.6 C30.4 269.17 32.11 261.8 34.33 254.53 C35.21 251.21 35.23 248.41 35 245 C27.97 246 22.46 248.61 16.23 251.83 C-11.55 266.12 -38.76 271.73 -69.1 262.35 C-99.99 251.95 -124.19 228.45 -139.06 199.9 C-142.1 193.76 -144.61 187.41 -147 181 C-147.59 179.44 -147.59 179.44 -148.18 177.84 C-149.29 174.58 -150.17 171.34 -151 168 C-151.18 167.29 -151.36 166.58 -151.55 165.85 C-159.4 133.8 -157.52 95.88 -146 65 C-145.75 64.32 -145.51 63.65 -145.25 62.95 C-139.59 47.61 -131.83 33.33 -121 21 C-120.29 20.13 -119.58 19.27 -118.84 18.38 C-89.21 -16.4 -38.28 -26.88 0 0 Z " fill="#6B9BFF" transform="translate(997,163)"/>
<path d="M0 0 C12.5 10.4 20.49 24.13 24 40 C24.15 40.66 24.29 41.31 24.44 41.99 C28.79 62.33 27.91 83.52 25 104 C24.84 105.15 24.68 106.31 24.51 107.49 C22.43 122.18 20.09 136.81 17.38 151.39 C16.36 156.9 15.36 162.41 14.37 167.92 C14.12 169.31 13.87 170.7 13.62 172.09 C7.04 208.68 2.34 249.67 24.13 282.18 C26.3 284.93 28.57 287.47 31 290 C31.47 290.51 31.94 291.01 32.42 291.54 C48.11 308.47 67.87 320.04 87.41 332.01 C109 345.24 130.01 359.16 149 376 C149.5 376.44 149.99 376.88 150.5 377.33 C178.34 402.11 207.71 434.28 212 473 C213.06 493.36 209.18 510.89 195.6 526.82 C182.42 540.73 163.77 551.45 144.32 552.47 C142.4 552.5 140.48 552.51 138.56 552.5 C137.56 552.49 136.55 552.49 135.51 552.48 C127.81 552.3 121.6 551.18 115 547 C114.19 546.49 113.37 545.98 112.54 545.46 C100.67 537.13 96.06 524.82 93.44 511.04 C91.29 497.42 91.62 483.62 91.54 469.87 C91.52 466.51 91.48 463.16 91.44 459.8 C91.44 458.29 91.44 458.29 91.44 456.75 C91.32 447.94 90.52 436.52 84 430 C75.96 426.61 67.25 426.04 58.66 425.18 C50.05 424.23 50.05 424.23 46.2 422.34 C42.16 420.65 40.21 420.87 36 422 C33.13 423.31 30.42 424.87 27.69 426.44 C-0.6 441.95 -35.87 453.79 -68.43 454.27 C-69.21 454.29 -69.99 454.3 -70.79 454.31 C-103.73 454.74 -103.73 454.74 -117 449 C-117.67 448.71 -118.35 448.42 -119.04 448.12 C-127.89 444.17 -135.23 438.98 -142 432 C-142.97 431.05 -142.97 431.05 -143.95 430.07 C-158.99 414.29 -161.84 389.88 -161.37 369.01 C-159.38 325.73 -135.88 285.04 -113.98 248.93 C-105.14 234.34 -96.93 219.6 -90 204 C-89.52 202.96 -89.04 201.91 -88.55 200.84 C-85.43 193.52 -83.64 185.92 -81.81 178.19 C-81.56 177.13 -81.31 176.08 -81.05 174.99 C-77.59 159.66 -76.66 144.83 -76.75 129.19 C-76.75 128.29 -76.75 127.4 -76.76 126.48 C-76.81 109.64 -77.52 92.91 -79.58 76.18 C-80.83 65.82 -81.29 55.51 -81.41 45.09 C-81.43 43.51 -81.46 41.94 -81.49 40.37 C-81.82 25.33 -79.27 11.72 -69 0 C-50.2 -19.56 -20.07 -15.88 0 0 Z " fill="#6B9BFF" transform="translate(2257,566)"/>
<path d="M0 0 C11.35 8.8 16.67 20 19.35 33.82 C19.78 37.87 19.87 41.87 19.85 45.95 C19.84 47.07 19.83 48.19 19.83 49.34 C19.13 82.09 6.6 114.76 -2.87 145.81 C-4.99 152.91 -6.68 160.09 -8.28 167.32 C-8.48 168.25 -8.69 169.17 -8.9 170.13 C-22.22 231.91 2.48 282.49 31.6 335.26 C57.32 382.02 88.43 442.71 73.31 497.58 C68.47 513.71 60.29 525.7 45.35 533.82 C29.12 541.82 10.26 541.41 -6.82 536.15 C-35.14 525.98 -56.91 504.29 -69.9 477.45 C-81.68 450.46 -81.58 422.46 -76.65 393.82 C-76.15 390.82 -75.65 387.82 -75.15 384.82 C-74.35 379.99 -73.55 375.17 -72.72 370.34 C-70.84 359.27 -69.47 348.63 -69.46 337.38 C-69.45 336.41 -69.44 335.44 -69.43 334.44 C-69.41 326 -69.55 315.37 -75.65 308.82 C-83.5 302.86 -91.61 302.89 -101.04 304.14 C-104.62 304.65 -108.19 305.19 -111.76 305.74 C-133.16 308.92 -133.16 308.92 -142.65 303.82 C-147.16 300.11 -150.2 296.28 -150.97 290.38 C-151.31 282.49 -149.16 275.83 -145.65 268.82 C-145.45 266.36 -145.33 263.97 -145.28 261.51 C-145.23 260.19 -145.18 258.88 -145.13 257.52 C-145.79 252.84 -146.97 251.7 -150.65 248.82 C-153.13 247.18 -155.68 245.71 -158.28 244.26 C-159.8 243.38 -161.33 242.5 -162.85 241.62 C-164.03 240.93 -164.03 240.93 -165.24 240.23 C-197.2 221.53 -234.02 195.3 -244.29 157.49 C-247.48 141.38 -246.46 126.23 -237.34 112.16 C-227.04 97.88 -213.36 89.46 -196.03 86.32 C-185.79 84.95 -175 85.2 -164.75 86.32 C-147.19 88.21 -127.61 89.26 -112.95 77.9 C-102.15 68.1 -95.46 54.96 -88.67 42.26 C-83.27 32.17 -78.05 22.61 -70.65 13.82 C-69.97 12.96 -69.29 12.09 -68.59 11.2 C-51.28 -9.7 -23.17 -15 0 0 Z " fill="#00277A" transform="translate(366.65234375,458.1796875)"/>
<path d="M0 0 C14.54 7.95 22.09 22.31 26.69 37.67 C38.96 81.03 30.1 126.73 8.84 165.57 C3.85 174.47 -1.69 183.03 -7.21 191.62 C-13.19 200.93 -18.9 210.31 -23.91 220.19 C-24.24 220.82 -24.56 221.45 -24.89 222.1 C-29.06 230.52 -31.04 237.88 -30.91 247.32 C-30.93 248.64 -30.93 248.64 -30.95 250 C-30.83 276.49 -8.29 299.17 9.17 316.51 C10.27 317.59 10.27 317.59 11.4 318.69 C28.84 335.96 42.65 357.69 43.46 382.82 C43.5 383.81 43.5 383.81 43.54 384.83 C44.21 404.28 42.27 423.89 28.46 438.82 C18.71 449.01 6.8 453.93 -7.25 454.25 C-18.26 454.27 -27.35 453.08 -37.54 448.82 C-38.29 448.51 -39.04 448.2 -39.81 447.89 C-95.75 424.75 -156.8 381.77 -180.8 324.29 C-189.05 303.85 -192.8 284.26 -192.85 262.25 C-192.86 261.01 -192.86 259.77 -192.87 258.49 C-192.74 241.95 -190.41 225.75 -187.41 209.5 C-187.11 207.82 -186.8 206.13 -186.5 204.45 C-184.48 193.42 -182.23 182.44 -179.87 171.48 C-174.93 148.5 -171.2 126.39 -171.1 102.82 C-171.1 101.96 -171.09 101.11 -171.08 100.23 C-170.98 77.29 -175.7 57.32 -184.15 36.13 C-187.09 28.64 -189.48 20.95 -188.54 12.82 C-185.39 6.53 -179.17 0.44 -172.54 -2.18 C-164.97 -3.21 -159.09 -1.92 -152.54 1.82 C-151.69 2.29 -150.83 2.77 -149.96 3.25 C-139.1 9.71 -130.74 18.12 -122.93 27.92 C-113.56 39.28 -102.46 50.56 -86.98 52.19 C-80.37 52.03 -75.03 49.23 -70.32 44.67 C-64.94 38.34 -60.53 31.33 -55.99 24.39 C-52 18.35 -47.71 12.91 -42.54 7.82 C-41.89 7.15 -41.23 6.49 -40.56 5.8 C-35.75 1.23 -30.8 -1.11 -24.54 -3.18 C-16.13 -5.99 -7.79 -3.63 0 0 Z " fill="#D3E1FF" transform="translate(767.5390625,409.18359375)"/>
<path d="M0 0 C19.87 15.71 24.6 39.19 29.98 62.73 C36.79 93.74 36.79 93.74 50.19 122.31 C50.56 122.92 50.94 123.52 51.32 124.14 C55.29 129.65 61.93 132.23 68.19 134.31 C95.72 136.89 119.49 125.85 144.2 115.25 C231.18 78.02 231.18 78.02 271.94 92.56 C286.63 98.6 297.51 107.77 304.19 122.31 C311.69 142.79 313.32 165.51 306.19 186.31 C305.95 187.06 305.7 187.8 305.46 188.57 C294.93 220.81 274.53 243.7 247.02 263.02 C243.9 265.21 240.79 267.42 237.69 269.62 C237.12 270.02 236.56 270.42 235.98 270.83 C233.31 272.73 230.95 274.56 228.66 276.92 C224.4 280.46 219.79 280.02 214.47 279.97 C213.39 279.98 212.31 279.99 211.2 280 C207.58 280.02 203.96 280.02 200.34 280.01 C197.74 280.02 195.15 280.03 192.55 280.05 C186.23 280.08 179.91 280.09 173.59 280.08 C168.46 280.08 163.32 280.09 158.18 280.1 C156.7 280.1 155.22 280.11 153.74 280.11 C153 280.11 152.26 280.11 151.5 280.11 C137.56 280.14 123.62 280.14 109.68 280.13 C96.94 280.12 84.2 280.15 71.46 280.2 C58.36 280.25 45.27 280.28 32.18 280.27 C24.83 280.26 17.49 280.27 10.14 280.31 C3.23 280.35 -3.68 280.34 -10.59 280.31 C-13.13 280.3 -15.66 280.31 -18.2 280.33 C-39.74 280.51 -39.74 280.51 -46.21 275.4 C-47.45 274.07 -48.66 272.72 -49.81 271.31 C-50.82 270.55 -51.83 269.79 -52.88 269 C-57.39 264.87 -61.04 260.12 -64.81 255.31 C-65.55 254.4 -66.28 253.5 -67.04 252.56 C-84.63 230.18 -95.5 202.14 -101.62 174.56 C-101.82 173.69 -102.01 172.82 -102.22 171.92 C-105.21 157.61 -106.19 143.33 -106.12 128.75 C-106.12 127.97 -106.12 127.2 -106.12 126.4 C-106.07 112.87 -105.23 99.64 -102.81 86.31 C-102.67 85.54 -102.53 84.77 -102.39 83.97 C-96.65 53.62 -81.34 21.12 -55.48 2.86 C-37.97 -8.36 -18.12 -12.56 0 0 Z " fill="#0052FF" transform="translate(781.8125,1160.6875)"/>
<path d="M0 0 C0.65 0.17 1.31 0.33 1.98 0.5 C23.71 6.17 41.44 17.46 53 37 C66.32 59.82 67.94 85.94 69.91 111.72 C71.82 145.42 71.82 145.42 88 174 C99.57 183.45 113.3 188.72 127.24 193.51 C161.94 205.49 193.35 220.99 210.31 255.24 C216.73 269.01 218.15 283.83 218.25 298.81 C218.26 299.78 218.27 300.75 218.28 301.74 C218.25 307.77 217.57 313.19 216 319 C215.83 319.67 215.66 320.33 215.48 321.02 C208.66 346.86 196.41 374.86 172.75 389.5 C165.04 393.95 157.8 394.89 149 394 C141.16 390.44 136.97 383.59 133.98 375.84 C132.31 370.99 131.16 366.05 130 361.06 C126.66 345.23 126.66 345.23 118 332 C114.96 330.48 113.41 330.5 110 331 C106.79 333.07 103.93 335.55 101 338 C76.07 358.04 41.45 360.63 10.69 360.38 C9.71 360.37 8.74 360.37 7.73 360.36 C-7.34 360.29 -22.15 359.77 -37 357 C-38.17 356.78 -38.17 356.78 -39.36 356.56 C-44.31 355.6 -49.16 354.4 -54 353 C-54.73 352.79 -55.45 352.58 -56.2 352.36 C-69.67 348.38 -82.4 343.01 -94 335 C-93.86 334.32 -93.71 333.64 -93.56 332.94 C-89.68 312.65 -91.96 294.63 -103.16 277.2 C-111.58 264.82 -122.73 255.43 -135 247 C-133.24 237.77 -123.9 229.86 -116.53 224.76 C-103.35 216.03 -88.54 210.53 -73.81 205 C-55.67 198.15 -38.09 191.27 -29 173 C-25.55 162.66 -29.16 151.8 -33.7 142.37 C-40.68 128.53 -49.93 116.07 -58.81 103.42 C-64 96.03 -69.11 88.59 -74 81 C-74.65 80 -75.29 79 -75.96 77.97 C-84.88 63.49 -89.9 48.05 -88 31 C-84.93 20.18 -77.19 12.14 -67.56 6.69 C-62.49 4.13 -57.37 1.86 -52 0 C-51.19 -0.3 -50.38 -0.6 -49.55 -0.91 C-34.1 -5.76 -15.48 -4.03 0 0 Z " fill="#00277A" transform="translate(1908,969)"/>
<path d="M0 0 C18.36 15.32 29.85 36.21 41.55 56.71 C52.57 76.36 52.57 76.36 66.08 94.31 C66.69 95 67.3 95.69 67.93 96.4 C77.87 107 91.22 112.97 105.72 113.55 C117.08 113.77 128.13 113.08 139.37 111.59 C151.84 109.95 164.12 108.87 176.71 108.81 C178.67 108.78 178.67 108.78 180.67 108.76 C196.52 108.85 212.02 112.45 223.9 123.5 C236.1 136.59 238.81 153.12 238.52 170.37 C238.51 171.88 238.5 173.39 238.49 174.9 C238.34 187.96 237.29 200.91 236.16 213.91 C234.02 238.89 232.02 265 248.16 286.02 C249.35 287.36 250.57 288.67 251.83 289.93 C253.08 291.31 253.08 291.31 253.08 293.31 C224.34 293.54 195.6 293.72 166.86 293.82 C163.46 293.83 160.06 293.85 156.66 293.86 C155.64 293.86 155.64 293.86 154.61 293.87 C143.68 293.91 132.75 293.99 121.82 294.08 C110.59 294.18 99.35 294.23 88.12 294.25 C81.81 294.26 75.51 294.29 69.21 294.37 C63.27 294.44 57.32 294.46 51.38 294.44 C49.21 294.44 47.04 294.46 44.87 294.5 C29.73 294.76 19.53 292.03 7.08 283.31 C6.18 282.68 6.18 282.68 5.26 282.05 C1.76 279.59 -1.6 277 -4.92 274.31 C-5.79 273.63 -6.67 272.94 -7.57 272.24 C-18.47 263.57 -29.06 254.09 -37.92 243.31 C-39.1 241.96 -39.1 241.96 -40.32 240.57 C-75.68 200.11 -96.12 150.4 -96.17 96.44 C-96.17 95.71 -96.17 94.98 -96.17 94.24 C-96.12 60.47 -88.32 26.06 -63.92 1.31 C-45.6 -16.69 -19.55 -15.54 0 0 Z " fill="#D3E1FF" transform="translate(2264.917236328125,1146.689453125)"/>
<path d="M0 0 C9.15 7.65 14.67 18.06 16.2 29.86 C16.63 35.59 16.64 41.26 16.44 47 C16.41 47.89 16.38 48.78 16.35 49.7 C15.41 64.6 10.71 79.02 5.78 93 C4.85 95.63 3.93 98.28 3.02 100.92 C1.77 104.53 0.52 108.14 -0.74 111.75 C-3.23 118.91 -5.68 126.09 -8.1 133.27 C-8.79 135.31 -9.49 137.35 -10.19 139.38 C-14.96 153.59 -18.92 169.08 -12.89 183.54 C-10.69 187.62 -7.9 190.8 -4.56 194 C-4.04 194.51 -3.52 195.02 -2.98 195.54 C0.4 198.62 4.06 201.12 7.88 203.62 C30.15 218.26 52.36 235.52 60.38 262.12 C62.61 273.63 62.74 287.72 59.44 299 C58.78 299.33 58.12 299.66 57.44 300 C57.07 301.18 57.07 301.18 56.69 302.38 C53.27 312.28 47.34 320.23 40.44 328 C39.53 329.03 39.53 329.03 38.61 330.08 C27.94 341.47 14.73 349.1 0.44 355 C-0.43 355.38 -1.3 355.76 -2.19 356.16 C-11.1 359.5 -24.83 360.11 -33.69 356.38 C-35.01 355.63 -36.3 354.83 -37.56 354 C-38.32 353.56 -39.07 353.13 -39.84 352.68 C-56.24 342.68 -63.73 322.5 -69.56 305 C-75.17 304.67 -80.78 304.34 -86.56 304 C-86.56 304.66 -86.56 305.32 -86.56 306 C-91.09 306.15 -95.62 306.29 -100.16 306.43 C-101.69 306.47 -103.22 306.52 -104.75 306.57 C-113.06 306.84 -121.37 307.05 -129.68 307.08 C-130.36 307.08 -131.03 307.09 -131.72 307.09 C-167.32 307.08 -200.11 290.02 -225.07 265.51 C-251.45 238.81 -266.21 202.97 -265.98 165.44 C-265.65 153.56 -262.28 143.26 -254.12 134.45 C-248.23 129.03 -241.03 127.43 -233.25 127.5 C-232.47 127.51 -231.69 127.51 -230.89 127.52 C-222.66 127.76 -215.16 129.83 -207.31 132.19 C-201.96 133.77 -196.57 135.22 -191.19 136.69 C-190.13 136.98 -189.07 137.28 -187.98 137.59 C-167.74 143.15 -145.82 145.1 -126.56 135 C-107.04 123.26 -97.52 101.87 -92.12 80.46 C-91.62 78.4 -91.12 76.35 -90.62 74.29 C-75.75 13.27 -75.75 13.27 -50.82 -2.76 C-34.21 -12.25 -15.39 -11.86 0 0 Z " fill="#6B9BFE" transform="translate(1755.5625,1005)"/>
<path d="M0 0 C0.87 0.58 1.73 1.15 2.62 1.75 C16.61 15 20.86 33.37 21.6 51.85 C22.17 74.49 18.41 96.48 14.65 118.72 C12.1 133.84 10.2 148.65 10 164 C9.97 165.35 9.93 166.7 9.89 168.04 C9.56 181.19 9.56 193.91 12.49 206.76 C13.01 209.03 13.5 211.31 13.99 213.59 C16.96 227.04 21.22 239.74 26.06 252.62 C26.78 254.56 27.49 256.49 28.21 258.42 C30.55 264.77 32.92 271.12 35.29 277.46 C37.32 282.94 39.09 288.43 40.62 294.06 C40.93 295.15 40.93 295.15 41.24 296.26 C41.86 298.5 42.44 300.75 43 303 C43.29 304.15 43.29 304.15 43.58 305.32 C45.16 312.27 45.3 319.02 45.25 326.12 C45.26 327.25 45.27 328.38 45.27 329.54 C45.24 344.79 40.45 357.75 30 369 C29.36 369.7 28.71 370.4 28.05 371.12 C19.68 379.32 7.35 385.2 -4 388 C-5.2 388.3 -5.2 388.3 -6.42 388.61 C-14.59 390.39 -22.7 390.19 -31 390 C-31 392.31 -31 394.62 -31 397 C-31.33 397 -31.66 397 -32 397 C-32 394.69 -32 392.38 -32 390 C-33.18 390.08 -34.35 390.16 -35.56 390.25 C-51.9 390.17 -66.91 382.15 -78.29 370.87 C-96.82 351.3 -105.09 321.57 -107.45 295.2 C-108.39 286.32 -114.73 280.95 -121.34 275.53 C-126.83 272.37 -133.02 272.9 -139.19 273 C-160.46 273.12 -160.46 273.12 -166 268 C-171.38 260.87 -171.81 254.73 -171 246 C-167.3 231.69 -156.84 218.88 -147.91 207.44 C-136.86 193.19 -124.12 176.36 -124.51 157.57 C-126.43 143.62 -136.88 133.93 -146.5 124.6 C-157.58 113.81 -169.18 102.29 -169.52 85.9 C-169.35 63.85 -158.88 47.72 -143.6 32.55 C-108.82 -1.13 -44.74 -32.88 0 0 Z " fill="#D3E1FF" transform="translate(1437,354)"/>
<path d="M0 0 C12.26 7.02 18.72 18.42 23 31.52 C24.96 39.05 25.97 46.54 26.12 54.32 C26.15 55.71 26.19 57.09 26.22 58.47 C26.27 60.6 26.31 62.74 26.35 64.87 C26.78 88.39 26.78 88.39 37.88 108.41 C48.65 117.34 64.61 115.95 77.68 114.82 C84.15 114.1 90.57 113.12 97 112.12 C100.71 111.57 104.42 111.02 108.13 110.47 C109.45 110.28 109.45 110.28 110.79 110.08 C139.03 105.93 170.74 105.16 195.29 122.04 C208.65 132.49 217.57 145.44 220.43 162.34 C223.57 188.59 215.34 212.51 199.18 233.22 C198.42 234.16 197.66 235.1 196.88 236.06 C195.83 237.36 195.83 237.36 194.76 238.68 C181.78 253.92 161.18 267.86 140.88 270.06 C136.87 270.27 132.88 270.34 128.88 270.38 C127.83 270.4 126.78 270.43 125.7 270.46 C111.71 270.57 100.26 265.74 88.12 259.19 C86.98 258.59 85.84 257.99 84.67 257.37 C77.94 253.81 71.38 250.02 64.88 246.06 C41.33 232.1 15.73 226.08 -11.22 232.7 C-26.51 236.79 -40.57 243.61 -54.72 250.56 C-77.19 261.59 -100.68 272.14 -126.12 272.31 C-127.26 272.34 -127.26 272.34 -128.41 272.38 C-136.36 272.43 -142.79 269.99 -149.12 265.06 C-156.71 257.48 -159.24 247.72 -159.32 237.27 C-159.26 182.57 -133.75 121.26 -99.12 79.06 C-98.51 78.29 -97.9 77.53 -97.26 76.73 C-91.94 70.32 -83.78 61.84 -75.22 60.66 C-63.43 60.76 -63.43 60.76 -58.51 65.68 C-53.54 71.22 -51.79 75.04 -51.92 82.5 C-52.15 85.36 -52.88 87.96 -53.67 90.71 C-54.7 96.03 -54.76 101.69 -54.12 107.06 C-52.74 108.98 -52.74 108.98 -51.12 110.06 C-50.69 109.18 -50.69 109.18 -50.25 108.28 C-49.58 106.96 -48.89 105.64 -48.16 104.34 C-41.83 92.75 -41.03 79.6 -40.91 66.64 C-40.89 64.88 -40.86 63.11 -40.83 61.34 C-40.79 58.62 -40.75 55.89 -40.72 53.16 C-40.54 35.9 -40.18 18.54 -27.75 5.12 C-19.63 -2.25 -10.34 -4.62 0 0 Z " fill="#00277A" transform="translate(1384.125,17.9375)"/>
<path d="M0 0 C11.19 6.5 16.5 18.17 19.81 30.25 C23.7 46.46 24.72 63.31 25.93 79.89 C27.82 107.59 27.82 107.59 42.06 130.62 C51.93 138.49 63.31 142.74 75.06 146.94 C89.29 152.03 102.13 158 113.62 168 C114.43 168.69 115.24 169.37 116.07 170.08 C140.18 191.13 156.18 221.88 158.62 254 C159.35 268.81 159.75 283.65 155.62 298 C155.23 299.56 154.83 301.11 154.44 302.67 C149.87 319.94 142.04 335.24 130.62 349 C129.77 350.08 129.77 350.08 128.89 351.19 C116.51 366.25 95.38 380.25 75.64 382.2 C65.31 382.94 57.74 382.29 49.71 375.34 C40.6 366.19 38.6 352.41 36.17 340.23 C28.61 302.37 28.61 302.37 4.12 273.56 C-0.13 270.91 -4.55 269.3 -9.38 268 C-9.7 268.99 -10.04 269.98 -10.38 271 C-10.62 270.37 -10.87 269.73 -11.12 269.08 C-12.18 266.88 -12.18 266.88 -14.22 266.18 C-19.66 265.17 -24.9 264.65 -30.44 264.69 C-31.72 264.69 -31.72 264.69 -33.03 264.69 C-39.79 264.79 -46.37 265.56 -53.06 266.5 C-61.67 267.7 -70.12 268.33 -78.81 268.38 C-80.35 268.4 -80.35 268.4 -81.91 268.42 C-93.29 268.35 -101.8 264.79 -110.32 257.29 C-120.87 246.47 -122.74 230.25 -122.62 215.81 C-122.63 214.9 -122.64 213.99 -122.65 213.04 C-122.61 198.51 -119.86 184.76 -116.31 170.75 C-115.94 169.27 -115.58 167.78 -115.21 166.3 C-114.27 162.53 -113.33 158.77 -112.38 155 C-112.11 153.92 -112.11 153.92 -111.83 152.82 C-108.26 138.68 -103.34 125.29 -97.38 112 C-96.71 110.51 -96.71 110.51 -96.04 109 C-95.26 107.29 -94.48 105.59 -93.69 103.89 C-92.67 101.64 -91.68 99.38 -90.71 97.11 C-81.06 74.55 -68.67 53.03 -54.48 33.01 C-52.4 30.04 -50.45 27 -48.5 23.94 C-37.87 7.99 -20.85 -9.47 0 0 Z " fill="#D2E0FF" transform="translate(1896.375,523)"/>
<path d="M0 0 C6.85 5.06 11.48 10.83 15.13 18.45 C15.58 19.36 15.58 19.36 16.05 20.29 C23.16 34.8 19.47 52.92 14.6 67.69 C7.9 86.76 -2.27 104.35 -12.32 121.81 C-28.64 148.39 -28.64 148.39 -29.8 178.52 C-27.04 186.34 -22.88 193.39 -18.77 200.54 C-7.77 219.76 -4.55 239.96 -9.59 261.55 C-14.54 279.6 -20.85 295.3 -33.62 309.32 C-34.23 310 -34.84 310.68 -35.46 311.38 C-42.28 318.6 -49.93 323.27 -60 323.7 C-66.64 323.52 -70.92 321.93 -75.71 317.3 C-78.91 313.8 -81.68 310.28 -84.18 306.26 C-86.35 303.08 -86.35 303.08 -89.75 302.45 C-94.53 303.53 -97.64 305.71 -101.66 308.44 C-122.79 321.86 -153.3 323.49 -177.31 318.36 C-196.07 313.97 -212.74 307.36 -228.62 296.32 C-229.72 295.56 -229.72 295.56 -230.84 294.79 C-252.29 278.99 -267.66 255.79 -271.93 229.32 C-274.58 206.68 -270.48 184.68 -256.96 166.04 C-249.9 157.38 -241.16 152.58 -230.62 149.32 C-229.63 148.99 -228.64 148.66 -227.62 148.32 C-212.65 147.14 -198.61 149.19 -184 152.19 C-165.41 155.91 -148.29 155.45 -131.62 145.32 C-104.18 126.18 -93.43 82.79 -83.12 53.01 C-75.6 31.56 -64.31 7.61 -43.25 -3.18 C-29.35 -9.78 -12.85 -8.24 0 0 Z " fill="#6B9BFF" transform="translate(641.62109375,902.6796875)"/>
<path d="M0 0 C10.36 6.24 15.68 17.92 18.77 29.21 C28.19 73.37 13.54 116.61 -4.24 156.42 C-12.74 175.58 -21.03 195.57 -16.27 216.88 C-10.04 233.01 4.52 240.94 19.46 247.71 C27.31 251.18 35.28 254.25 43.31 257.27 C71.73 267.96 95.08 281.57 108.62 310.05 C110.92 315.61 112.51 321.29 113.9 327.14 C114.13 328.1 114.35 329.05 114.59 330.03 C119.86 356.28 114.52 387 99.77 409.38 C91.28 420.39 79.58 428.19 65.9 431.14 C33.92 433.85 9.34 420.24 -16.1 402.14 C-16.84 401.62 -17.57 401.1 -18.33 400.56 C-24.34 396.28 -30.31 391.93 -36.25 387.56 C-62.57 368.25 -89.42 349.55 -120.36 338.54 C-121.01 338.31 -121.66 338.08 -122.33 337.84 C-123.92 337.28 -125.51 336.71 -127.1 336.14 C-127.31 320.02 -127.47 303.89 -127.57 287.77 C-127.61 280.28 -127.68 272.79 -127.78 265.3 C-127.87 258.77 -127.93 252.25 -127.95 245.71 C-127.96 242.26 -127.99 238.81 -128.05 235.35 C-128.13 231.49 -128.13 227.62 -128.12 223.75 C-128.17 222.06 -128.17 222.06 -128.22 220.32 C-128.13 212.53 -125.99 208.76 -120.44 203.32 C-119.67 202.6 -118.9 201.88 -118.1 201.14 C-116.7 199.67 -115.3 198.19 -113.91 196.71 C-108.61 191.46 -102.72 187.01 -96.82 182.47 C-92.5 179.13 -88.27 175.68 -84.1 172.14 C-83.13 171.32 -83.13 171.32 -82.15 170.49 C-70.7 159.97 -64.06 143.96 -62.91 128.58 C-62.83 125.95 -62.82 123.34 -62.85 120.71 C-62.86 119.75 -62.86 118.8 -62.86 117.81 C-62.94 111.68 -63.37 105.67 -64.1 99.58 C-67.55 70.78 -63 44.48 -45.23 20.84 C-34.48 7.21 -18.82 -8.41 0 0 Z " fill="#D3E1FF" transform="translate(127.1015625,822.85546875)"/>
<path d="M0 0 C20.98 11.83 41.81 13.59 65.03 7.27 C66.91 6.73 68.79 6.19 70.67 5.64 C71.75 5.33 72.84 5.01 73.96 4.68 C76.3 4 78.65 3.32 80.99 2.63 C114.24 -7.04 147.82 -12.42 179.67 4.64 C200.73 16.63 217.35 36.5 223.97 59.97 C230.34 84.27 230.93 109.27 224.67 133.64 C224.47 134.47 224.26 135.29 224.05 136.14 C219.15 155.52 210.54 174.5 198.67 190.64 C198.01 190.64 197.35 190.64 196.67 190.64 C196.3 191.49 196.3 191.49 195.92 192.35 C186.5 209.63 166.87 221.11 148.67 226.64 C148.01 226.84 147.36 227.04 146.68 227.25 C136.49 229.23 127.59 227.64 118.75 222.53 C105.64 213.14 103.56 192.55 100.87 177.96 C96.07 151.3 96.07 151.3 79.11 131.08 C69.49 125.41 59.7 123.96 48.8 126.57 C44.67 127.78 40.61 129.17 36.54 130.58 C27.6 133.64 19.22 136.4 9.67 136.64 C8.61 136.69 7.54 136.74 6.44 136.79 C-9.82 137.4 -24.81 136.75 -40.33 131.64 C-41.03 131.41 -41.74 131.18 -42.46 130.95 C-64.91 123.33 -86.24 107.16 -97.25 85.86 C-106.11 67.3 -108.1 46.21 -101.65 26.56 C-95.54 9.83 -85.07 -3.85 -69.04 -12.11 C-65.22 -13.87 -61.39 -15.25 -57.33 -16.36 C-56.53 -16.58 -55.72 -16.81 -54.89 -17.05 C-35 -19.47 -16.74 -9.56 0 0 Z " fill="#6B9BFF" transform="translate(2002.330078125,193.357666015625)"/>
<path d="M0 0 C12.27 8.43 20.89 19.79 29.11 32 C42.59 51.94 56.3 70.9 77.5 83.06 C78.39 83.59 79.29 84.12 80.21 84.67 C95.51 93.04 113.28 97.07 130 101.69 C149.26 107.01 168.13 112.65 183.5 126.06 C184.53 126.92 184.53 126.92 185.58 127.79 C193.42 134.83 198.64 143.93 199.23 154.5 C199.35 167.55 194.51 177.66 185.5 187.06 C180.95 191.51 178.54 192.69 171.97 192.72 C171.23 192.73 170.5 192.75 169.74 192.76 C167.28 192.79 164.82 192.78 162.35 192.77 C160.58 192.79 158.81 192.8 157.04 192.82 C152.24 192.86 147.44 192.87 142.63 192.87 C138.61 192.87 134.58 192.88 130.56 192.9 C121.04 192.93 111.53 192.94 102.01 192.93 C92.25 192.93 82.48 192.97 72.71 193.04 C64.3 193.1 55.88 193.12 47.46 193.11 C42.45 193.11 37.44 193.12 32.43 193.17 C-6.93 193.5 -6.93 193.5 -22.51 184.22 C-25.31 182.59 -28.22 181.24 -31.16 179.87 C-56.01 168.11 -76.51 149.11 -86.31 123 C-90.07 112.42 -90.86 102.09 -90.81 90.94 C-90.81 89.66 -90.8 88.38 -90.8 87.06 C-90.47 61.77 -82.45 36.35 -65.5 17.06 C-64.85 16.26 -64.2 15.45 -63.52 14.62 C-46.96 -5.11 -23.52 -13.72 0 0 Z " fill="#00277A" transform="translate(430.5,1247.9375)"/>
<path d="M0 0 C6.76 5.26 9.17 10.94 10.23 19.33 C11.13 32.78 6.9 44.9 2.75 57.53 C1.88 60.24 1.02 62.96 0.16 65.68 C-0.35 67.28 -0.86 68.87 -1.38 70.46 C-5.35 82.67 -4.45 92.4 -1.19 104.71 C-0.88 105.91 -0.56 107.1 -0.24 108.33 C1.87 116.09 4.39 123.05 8.37 130.02 C11.23 135.22 11.58 140.71 10.75 146.53 C7.46 155.79 2.42 163.49 -6.5 167.96 C-14.94 170.94 -25.75 171.09 -34.35 168.64 C-36.84 167.45 -39 166.13 -41.25 164.53 C-42.08 163.95 -42.9 163.37 -43.75 162.78 C-45.45 161.58 -47.14 160.37 -48.83 159.17 C-55.99 154.31 -62.75 152.91 -71.31 151.92 C-74.25 151.53 -74.25 151.53 -76.25 150.53 C-94.37 148.7 -110.06 151.25 -127.04 157.38 C-132.41 159.3 -137.83 161.04 -143.25 162.78 C-144.28 163.11 -145.32 163.45 -146.38 163.79 C-161.95 168.76 -177.14 171.7 -193.5 171.78 C-194.56 171.8 -195.61 171.82 -196.7 171.84 C-214.18 171.93 -227.6 165.37 -240.25 153.53 C-252.59 140.71 -258.41 124.92 -258.62 107.34 C-258.64 106.51 -258.65 105.68 -258.67 104.82 C-258.58 93.4 -253.78 83.34 -246.25 74.84 C-237.65 66.96 -227.25 64.09 -216.19 61.53 C-199.46 57.63 -188.91 51.12 -178.25 37.46 C-170.66 27.82 -162.59 21.47 -150.25 19.53 C-141.05 18.98 -132.99 19.52 -124.25 22.53 C-122.81 23.02 -121.36 23.5 -119.92 23.99 C-119.15 24.25 -118.38 24.51 -117.58 24.78 C-102.28 29.94 -87.6 34.05 -72.25 26.53 C-65.3 22.84 -59.57 18.17 -53.88 12.8 C-38.5 -1.63 -20.42 -13.37 0 0 Z " fill="#0052FE" transform="translate(1022.25,865.47265625)"/>
<path d="M0 0 C8.42 5.32 13.05 13.09 15.5 22.56 C21.11 52.45 13.76 86.91 -2.5 112.56 C-8.7 121.33 -15.06 128.21 -25.5 131.56 C-32.64 132.58 -37.47 130.35 -43.5 126.56 C-46.9 123.63 -49.95 120.41 -53 117.12 C-61.18 108.36 -70.09 100.02 -82.62 99.12 C-86.53 99.17 -86.53 99.17 -88.71 101.66 C-90.9 105.21 -91 107.29 -90.94 111.44 C-90.92 112.42 -90.92 112.42 -90.91 113.42 C-90.71 119.4 -89.46 125.07 -88.18 130.91 C-86.94 137.53 -85.9 145.16 -88.94 151.44 C-97.88 163.9 -113.42 166.47 -127.56 168.88 C-154.83 173.08 -178.34 170.38 -201.43 154.55 C-203.9 152.65 -206.21 150.67 -208.5 148.56 C-209.32 147.83 -210.13 147.09 -210.97 146.33 C-231.67 126.72 -242.86 99.13 -243.83 70.83 C-244.18 50.85 -239.74 31 -226.5 15.56 C-218.34 7.33 -210.91 2.59 -199.19 2.19 C-184.67 2.49 -173.6 11.86 -163.5 21.56 C-162.4 22.79 -161.31 24.03 -160.24 25.28 C-144.4 44.55 -144.4 44.55 -122.61 54.76 C-111.87 55.16 -103.05 55.09 -93.5 49.56 C-92.38 48.92 -91.27 48.28 -90.12 47.61 C-82.14 42.81 -75.09 37.11 -68.11 30.97 C-21.91 -9.56 -21.91 -9.56 0 0 Z " fill="#D3E1FF" transform="translate(465.5,79.4375)"/>
<path d="M0 0 C13.17 8.77 19.77 23.02 26.51 36.86 C33.79 52.43 33.79 52.43 47.25 62.38 C64.57 67.4 83.49 60.8 100.42 56.95 C120.1 52.52 142.49 49.45 160.44 60.62 C168.69 66.93 174.41 76.71 176.19 86.98 C178 106.16 174.83 124.27 162.4 139.58 C156.03 146.23 148.83 149.63 139.69 150 C128.1 149.73 121.45 144.58 113.44 136.62 C112.48 135.7 112.48 135.7 111.5 134.77 C108.49 131.84 105.74 128.8 103.07 125.56 C98.82 120.63 93.65 116.69 87.44 114.62 C85.88 114.56 84.32 114.54 82.75 114.56 C81.95 114.57 81.14 114.58 80.3 114.59 C79.69 114.6 79.07 114.61 78.44 114.62 C74.95 120.77 76.17 126.69 77.98 133.26 C79.26 139.77 80.17 147.93 76.44 153.75 C70.7 159.8 62.75 161.56 54.88 163.31 C53.97 163.52 53.07 163.74 52.13 163.96 C44.38 165.74 36.88 166.78 28.93 166.86 C28.13 166.87 27.33 166.88 26.5 166.89 C-7.58 167.22 -36.73 162.51 -62.43 138.12 C-78.56 121.04 -83.41 100.92 -82.81 78.14 C-82.57 72.14 -82.09 66.44 -80.56 60.62 C-80.25 59.41 -79.94 58.2 -79.63 56.96 C-73.05 32.84 -58.27 11.63 -36.52 -0.96 C-24.85 -6.53 -11.16 -6.56 0 0 Z " fill="#D3E1FF" transform="translate(1296.55859375,1265.375)"/>
<path d="M0 0 C2 0.01 4.01 0.03 6.01 0.03 C11.27 0.06 16.52 0.14 21.77 0.23 C27.14 0.31 32.51 0.35 37.88 0.39 C48.4 0.48 58.92 0.61 69.43 0.78 C70.81 5.47 72.18 10.16 73.54 14.86 C74 16.44 74.47 18.03 74.93 19.62 C83.08 47.32 83.08 47.32 82.81 61.53 C82.8 62.33 82.79 63.12 82.78 63.94 C82.46 76.49 78.83 87.73 70.26 97.1 C60.5 106.09 47.66 109.94 35.22 113.67 C14.66 119.84 2.97 131.02 -9 148.27 C-14.52 156.22 -20.44 163.39 -27.19 170.34 C-28.42 171.63 -29.63 172.95 -30.84 174.28 C-41.16 185.33 -55.27 193.88 -70.57 195.22 C-79.7 195.51 -85.44 194.34 -92.32 188.41 C-100.88 178.42 -102.81 167.24 -101.86 154.36 C-96.34 106.5 -66.11 43.75 -31.06 10.28 C-29.48 8.76 -29.48 8.76 -28.04 6.78 C-20.47 -1.85 -10.55 -0.23 0 0 Z " fill="#D3E1FF" transform="translate(1822.56640625,-0.78125)"/>
<path d="M0 0 C40.92 0 81.84 0 124 0 C124 16.14 123.4 26.78 118.18 40.98 C112.39 55.98 112.39 55.98 114.38 71.56 C119.46 81.42 128.85 87.49 137.73 93.6 C156.52 106.57 156.52 106.57 160 117 C161.2 127.52 158.06 135.8 151.62 144.06 C136.99 161.16 113.88 171 92 174 C88.12 174.26 84.26 174.29 80.38 174.25 C79.33 174.24 78.29 174.23 77.21 174.23 C55.5 173.92 36.64 170.11 20.19 154.75 C11.25 145.37 7.64 134.76 7.62 122 C7.6 121.16 7.58 120.31 7.55 119.44 C7.49 105.13 13.46 91.53 18.5 78.38 C29.01 54.83 29.01 54.83 27.23 30.39 C23.46 23.22 17.48 17.98 11.69 12.44 C10.01 10.81 8.33 9.17 6.65 7.53 C5.62 6.52 4.58 5.52 3.53 4.52 C2.34 3.36 1.17 2.18 0 1 C0 0.67 0 0.34 0 0 Z " fill="#00277A" transform="translate(603,0)"/>
<path d="M0 0 C8.45 6.77 13.96 15.16 19.55 24.31 C26.28 35.9 26.28 35.9 36.94 43.31 C53.5 45.96 70.19 32.28 83.02 23.61 C101.15 11.38 120.19 -1.43 142.94 0.31 C145.77 0.98 147.38 1.79 149.94 3.31 C150.82 3.83 151.71 4.34 152.62 4.88 C159.24 11.85 159.56 20.86 159.38 30 C159.36 31.15 159.35 32.3 159.33 33.49 C159.14 42.1 158.36 50 155.94 58.31 C155.73 59.04 155.52 59.77 155.3 60.51 C151.46 73.61 147.3 84.94 135.94 93.31 C131.87 95.35 127.34 94.99 122.94 94.31 C117.32 91.69 112.58 87.82 107.69 84.06 C101.63 79.46 96.47 77.68 88.94 78.31 C87.95 78.97 86.96 79.63 85.94 80.31 C85.59 84.46 85.56 87.24 86.93 91.17 C88.98 97.57 88.98 104.61 86.56 110.88 C78.19 118.65 66.37 118.76 55.57 118.6 C50.46 118.39 46.02 117.17 41.21 115.45 C37.49 114.16 33.76 113.23 29.94 112.31 C3.65 105.83 -22.61 94.06 -38.06 70.69 C-47.31 54.96 -51.79 38.01 -48.41 19.82 C-45.31 9.61 -39.46 0.67 -30.06 -4.69 C-18.98 -9.2 -9.44 -6.61 0 0 Z " fill="#01287A" transform="translate(2388.0625,674.6875)"/>
<path d="M0 0 C1.96 0.97 3.76 1.98 5.57 3.21 C6.6 3.77 6.6 3.77 7.65 4.33 C9.99 6.62 10.05 8.13 10.09 11.34 C10.07 12.38 10.07 12.38 10.05 13.44 C10.05 14.18 10.06 14.93 10.06 15.69 C10.07 18.18 10.05 20.67 10.02 23.17 C10.02 24.95 10.02 26.73 10.03 28.52 C10.03 33.37 10 38.22 9.98 43.06 C9.95 48.13 9.95 53.19 9.94 58.26 C9.93 67.85 9.9 77.45 9.86 87.04 C9.81 97.96 9.79 108.88 9.77 119.81 C9.73 142.27 9.66 164.74 9.57 187.21 C7.97 186.89 6.36 186.58 4.76 186.26 C3.86 186.08 2.97 185.9 2.05 185.72 C-24.06 180.37 -51.1 169.76 -71.43 152.21 C-72.95 151.1 -72.95 151.1 -74.49 149.96 C-83.69 142.15 -88.7 131.41 -92.43 120.21 C-93.15 111.01 -93.71 102.63 -87.43 95.21 C-79.48 86.2 -68.26 83.41 -57.16 80.01 C-47.6 77.06 -38.07 73.88 -32.99 64.58 C-29.12 55.2 -28.71 46.87 -28.74 36.9 C-28.73 34.64 -28.72 32.39 -28.69 30.13 C-28.67 28.1 -28.67 26.07 -28.67 24.03 C-28.2 16.54 -26.38 9.13 -20.91 3.7 C-14.77 -1.53 -7.79 -2.53 0 0 Z " fill="#D3E1FF" transform="translate(2550.4296875,86.7890625)"/>
<path d="M0 0 C0.66 0.66 1.32 1.32 2 2 C-12.52 2 -27.04 2 -42 2 C-30.23 -9.77 -14 -5.22 0 0 Z " fill="#F1F3F7" transform="translate(529,1438)"/>
<path d="M0 0 C0.66 0.33 1.32 0.66 2 1 C-3.28 6.28 -8.56 11.56 -14 17 C-14.66 16.67 -15.32 16.34 -16 16 C-10.97 10.22 -5.96 4.82 0 0 Z " fill="#1B3E88" transform="translate(1299,83)"/>
<path d="M0 0 C0.66 0.33 1.32 0.66 2 1 C0.05 3.01 -1.91 5 -3.88 7 C-4.43 7.57 -4.99 8.14 -5.56 8.73 C-7 10.19 -8.5 11.6 -10 13 C-10.66 13 -11.32 13 -12 13 C-10.45 9.12 -8 6.97 -4.88 4.25 C-3.96 3.45 -3.05 2.65 -2.12 1.83 C-1.07 0.92 -1.07 0.92 0 0 Z " fill="#E0EAFF" transform="translate(2355,198)"/>
<path d="M0 0 C0.66 0.33 1.32 0.66 2 1 C-0.97 3.97 -3.94 6.94 -7 10 C-7.66 9.67 -8.32 9.34 -9 9 C-6.21 5.51 -3.75 2.5 0 0 Z " fill="#21438B" transform="translate(2355,672)"/>
<path d="M0 0 C0.66 0.33 1.32 0.66 2 1 C0.38 2.71 -1.29 4.37 -3 6 C-3.66 6 -4.32 6 -5 6 C-3.63 2.84 -3.01 2.01 0 0 Z " fill="#DCE7FF" transform="translate(1690,787)"/>
<path d="M0 0 C-1.18 0.68 -1.18 0.68 -2.38 1.38 C-5.04 2.88 -5.04 2.88 -7 5 C-6.62 2.56 -6.62 2.56 -6 0 C-3.51 -1.25 -2.59 -0.78 0 0 Z " fill="#BDCDEE" transform="translate(390,529)"/>
<path d="M0 0 C0.66 0 1.32 0 2 0 C1.34 1.32 0.68 2.64 0 4 C-0.33 3.01 -0.66 2.02 -1 1 C-0.67 0.67 -0.34 0.34 0 0 Z " fill="#E4E8F1" transform="translate(2475,753)"/>
</svg>
